<?xml version="1.0" encoding="UTF-8"?>
<svg width="115px" height="28px" viewBox="0 0 115 28" version="1.1" xmlns="http://www.w3.org/2000/svg" xmlns:xlink="http://www.w3.org/1999/xlink">
    <!-- Generator: Sketch 44.1 (41455) - http://www.bohemiancoding.com/sketch -->
    <title>Group 2</title>
    <desc>Created with Sketch.</desc>
    <defs></defs>
    <g id="Symbols" stroke="none" stroke-width="1" fill="none" fill-rule="evenodd">
        <g id="Footer" transform="translate(-939.000000, -54.000000)" fill="#FFFFFF">
            <g id="Partners">
                <g transform="translate(203.000000, 5.000000)">
                    <g id="Group-2" transform="translate(736.000000, 49.000000)">
                        <path d="M4.21583591,19.4945571 C5.3465196,19.4945571 6.3732406,19.9395916 7.13032832,20.6640209 C7.93226109,21.4313608 8.6907491,22.2414208 9.93533741,22.2414208 L9.93533741,25.2164102 C8.28701972,25.2288365 7.70065017,26.3092631 6.87388946,26.9814895 C6.1486265,27.5711896 5.22351812,27.9246646 4.21583591,27.9246646 C1.88749403,27.9246646 2.69500048e-16,26.0375207 0,23.7096108 C-2.69500048e-16,21.3817009 1.88749403,19.4945571 4.21583591,19.4945571 Z M15.656829,19.4945571 C17.9851709,19.4945571 19.8726649,21.3817009 19.8726649,23.7096108 C19.8726649,26.0375207 17.9851709,27.9246646 15.656829,27.9246646 C14.6491468,27.9246646 13.7240384,27.5711896 12.9987754,26.9814895 C12.1720147,26.3092631 11.5856452,25.2288365 9.9373275,25.2164102 L9.9373275,22.2414208 C11.1819158,22.2414208 11.9404038,21.4313608 12.7423366,20.6640209 C13.4994243,19.9395916 14.5261453,19.4945571 15.656829,19.4945571 Z" id="Combined-Shape"></path>
                        <path d="M24.8644771,11.8692312 C25.4298189,12.8408328 25.5547537,13.9456161 25.3010165,14.9583996 C25.0322495,16.031174 24.7044741,17.0879761 25.3267683,18.1574564 L22.7302008,19.6449511 C21.8951963,18.2347575 20.6590164,18.2711008 19.6589176,17.8967748 C18.7815965,17.5684032 18.0105298,16.9501909 17.5066887,16.084285 C16.3425177,14.0835304 17.0458677,11.5180263 19.0776649,10.3540714 C21.1094621,9.19011641 23.7003061,9.86847659 24.8644771,11.8692312 Z M30.5849736,21.700528 C31.7491445,23.7012827 31.0457945,26.2667867 29.0139974,27.4307417 C26.9822002,28.5946966 24.3913562,27.9163365 23.2271852,25.9155818 C22.7233441,25.049676 22.5693025,24.0779887 22.7213606,23.1599169 C22.8946987,22.1133645 23.544509,21.0692812 22.7311959,19.6466612 C22.777097,18.5056657 22.9424268,17.8536032 23.2271852,17.6904737 C23.5194417,17.5230488 24.2196344,17.6792797 25.3277633,18.1591665 C25.9500575,19.2286469 27.0363209,19.4753891 28.1070206,19.7808236 C29.1178456,20.0691778 30.0196318,20.7289265 30.5849736,21.700528 Z" id="Combined-Shape" fill-rule="nonzero"></path>
                        <path d="M6.27977574,11.9155818 C6.84511758,10.9439802 7.74690377,10.2842315 8.75772871,9.99587731 C9.82842848,9.69044282 10.9146919,9.44370063 11.536986,8.3742203 L14.1335535,9.861715 C13.3202403,11.284335 13.9700506,12.3284182 14.1433887,13.3749706 C14.2954469,14.2930424 14.1414052,15.2647297 13.6375641,16.1306356 C12.4733932,18.1313902 9.88254914,18.8097504 7.85075198,17.6457954 C5.81895482,16.4818405 5.1156048,13.9163365 6.27977574,11.9155818 Z M12.0002723,2.084285 C13.1644432,0.0835303564 15.7552873,-0.594829823 17.7870844,0.569125134 C19.8188816,1.73308009 20.5222316,4.29858412 19.3580607,6.29933877 C18.8542196,7.16524462 18.0831528,7.78345692 17.2058317,8.11182857 C16.2057329,8.48615457 14.9695531,8.44981129 14.1345485,9.86000491 L11.5379811,8.37251021 C12.1602752,7.30302988 11.8324998,6.24622775 11.5637328,5.17345337 C11.3099956,4.16066985 11.4349304,3.05588658 12.0002723,2.084285 Z" id="Combined-Shape"></path>
                        <path d="M44.0619589,27.774127 L44.0619589,26.5230769 L44.00714,26.5230769 C43.7421806,27.003555 43.3310429,27.3571091 42.7737145,27.5837498 C42.2255226,27.819456 41.467202,27.9373074 40.4987297,27.9373074 C38.9089733,27.9191761 37.6846966,27.5021636 36.8258627,26.6862573 C35.9213461,25.8884823 35.4690946,24.8686147 35.4690946,23.626624 C35.4690946,22.4390271 35.8619596,21.4554215 36.6477012,20.6757777 C37.4334429,19.8780026 38.5846285,19.4700556 40.1012926,19.4519243 L44.0619589,19.4519243 L44.0619589,17.969702 C44.080232,16.7277113 43.107206,16.1248562 41.1428519,16.1611187 C40.4302025,16.1611187 39.8683143,16.2336426 39.4571704,16.3786926 C39.0277534,16.5509395 38.6897069,16.8410352 38.4430205,17.2489883 L36.1954452,15.5491921 C37.2826924,14.1349545 38.8861295,13.4459773 41.0058046,13.4822398 C42.7965647,13.4641085 44.2264103,13.7995316 45.2953844,14.4885192 C46.3643585,15.195638 46.9079739,16.4104136 46.926247,18.1328824 L46.926247,27.774127 L44.0619589,27.774127 Z M44.0619589,22.8107218 L44.0619589,21.790844 L40.635777,21.790844 C38.9729284,21.8271065 38.1506529,22.3936996 38.168926,23.4906403 C38.168926,23.9711185 38.3836312,24.3790655 38.8130482,24.7144936 C39.2241921,25.0861843 39.9048534,25.2720268 40.8550526,25.2720268 C42.0519382,25.2901581 42.8970546,25.149643 43.3904272,24.8504773 C43.8381172,24.5513117 44.0619589,23.8714 44.0619589,22.8107218 Z M49.9510508,27.774127 L60.55851,27.774127 L60.55851,25.095248 L53.4320516,25.095248 L60.55851,15.9163481 L60.55851,13.6590186 L50.3347832,13.6590186 L50.3347832,16.1611187 L57.0775092,16.1611187 L49.9510508,25.5167975 L49.9510508,27.774127 Z M71.0386857,27.774127 L71.0386857,26.5230769 L70.9838668,26.5230769 C70.7189074,27.003555 70.3077696,27.3571091 69.7504413,27.5837498 C69.2022494,27.819456 68.4439287,27.9373074 67.4754565,27.9373074 C65.8857001,27.9191761 64.6614233,27.5021636 63.8025894,26.6862573 C62.8980729,25.8884823 62.4458214,24.8686147 62.4458214,23.626624 C62.4458214,22.4390271 62.8386863,21.4554215 63.624428,20.6757777 C64.4101696,19.8780026 65.5613552,19.4700556 67.0780194,19.4519243 L71.0386857,19.4519243 L71.0386857,17.969702 C71.0569587,16.7277113 70.0839328,16.1248562 68.1195787,16.1611187 C67.4069293,16.1611187 66.845041,16.2336426 66.4338972,16.3786926 C66.0044802,16.5509395 65.6664336,16.8410352 65.4197473,17.2489883 L63.172172,15.5491921 C64.2594191,14.1349545 65.8628562,13.4459773 67.9825314,13.4822398 C69.7732914,13.4641085 71.2031371,13.7995316 72.2721112,14.4885192 C73.3410853,15.195638 73.8847007,16.4104136 73.9029738,18.1328824 L73.9029738,27.774127 L71.0386857,27.774127 Z M71.0386857,22.8107218 L71.0386857,21.790844 L67.6125037,21.790844 C65.9496551,21.8271065 65.1273797,22.3936996 65.1456528,23.4906403 C65.1456528,23.9711185 65.360358,24.3790655 65.789775,24.7144936 C66.2009188,25.0861843 66.8815802,25.2720268 67.8317794,25.2720268 C69.0286649,25.2901581 69.8737813,25.149643 70.367154,24.8504773 C70.814844,24.5513117 71.0386857,23.8714 71.0386857,22.8107218 Z M81.0529006,27.774127 L83.4101137,27.774127 L88.631615,13.6590186 L85.5891654,13.6590186 L82.2589166,23.5450338 L82.2040977,23.5450338 L78.8601442,13.6590186 L75.8313993,13.6590186 L81.0529006,27.774127 Z M101.414185,21.790844 L92.5472261,21.790844 C92.5472261,22.9240472 92.8761363,23.7852687 93.5339665,24.3745344 C94.146114,24.9728657 94.9501167,25.2720268 95.9459986,25.2720268 C97.106338,25.2720268 98.1433187,24.8142196 99.0569717,23.8985914 L101.126386,25.6527812 C99.6736772,27.1939375 97.9651716,27.9554386 96.0008175,27.9373074 C95.2516219,27.9373074 94.5207104,27.8285215 93.808061,27.6109465 C93.4517363,27.4930934 93.1045534,27.3344473 92.7665017,27.1350035 C92.410177,26.9627567 92.0766987,26.7497177 91.7660566,26.4958801 C91.1630456,25.9700739 90.6742485,25.2357692 90.2996507,24.2929442 C89.8885069,23.3863816 89.682938,22.207868 89.682938,20.7573679 C89.682938,19.3612615 89.8610977,18.2008789 90.2174224,17.2761851 C90.5737471,16.33336 91.0305668,15.5899899 91.5878951,15.0460524 C92.1543601,14.4930492 92.7893394,14.0941677 93.4928523,13.8493958 C94.1872286,13.6046239 94.8724582,13.4822398 95.5485615,13.4822398 C97.1748639,13.500371 98.5498912,14.0307022 99.6736845,15.0732491 C100.815751,16.1339273 101.395912,17.5934711 101.414185,19.4519243 L101.414185,21.790844 Z M92.5472261,19.4519243 L98.5498968,19.4519243 C98.5133507,18.3549836 98.2164179,17.5254913 97.6590895,16.9634226 C97.1108977,16.4285507 96.4073953,16.1611187 95.5485615,16.1611187 C94.6897276,16.1611187 93.9862252,16.4285507 93.4380334,16.9634226 C92.8989781,17.5254913 92.6020453,18.3549836 92.5472261,19.4519243 Z M112.127341,27.774127 L112.127341,26.5230769 L112.072522,26.5230769 C111.807563,27.003555 111.396425,27.3571091 110.839097,27.5837498 C110.290905,27.819456 109.532584,27.9373074 108.564112,27.9373074 C106.974355,27.9191761 105.750079,27.5021636 104.891245,26.6862573 C103.986728,25.8884823 103.534477,24.8686147 103.534477,23.626624 C103.534477,22.4390271 103.927342,21.4554215 104.713083,20.6757777 C105.498825,19.8780026 106.650011,19.4700556 108.166675,19.4519243 L112.127341,19.4519243 L112.127341,17.969702 C112.145614,16.7277113 111.172588,16.1248562 109.208234,16.1611187 C108.495585,16.1611187 107.933696,16.2336426 107.522552,16.3786926 C107.093135,16.5509395 106.755089,16.8410352 106.508403,17.2489883 L104.260827,15.5491921 C105.348074,14.1349545 106.951512,13.4459773 109.071187,13.4822398 C110.861947,13.4641085 112.291792,13.7995316 113.360766,14.4885192 C114.429741,15.195638 114.973356,16.4104136 114.991629,18.1328824 L114.991629,27.774127 L112.127341,27.774127 Z M112.127341,22.8107218 L112.127341,21.790844 L108.701159,21.790844 C107.03831,21.8271065 106.216035,22.3936996 106.234308,23.4906403 C106.234308,23.9711185 106.449013,24.3790655 106.87843,24.7144936 C107.289574,25.0861843 107.970235,25.2720268 108.920435,25.2720268 C110.11732,25.2901581 110.962437,25.149643 111.455809,24.8504773 C111.903499,24.5513117 112.127341,23.8714 112.127341,22.8107218 Z" id="azavea"></path>
                    </g>
                </g>
            </g>
        </g>
    </g>
</svg>